<svg width="24" height="24" viewBox="0 0 24 24" fill="none" xmlns="http://www.w3.org/2000/svg">
<path d="M12.4051 21.05C13.428 21.05 14.2564 20.2215 14.2564 19.1987H10.5538C10.5538 20.2215 11.3823 21.05 12.4051 21.05ZM17.959 15.4962V10.8679C17.959 8.0216 16.4456 5.64733 13.7936 5.0179V4.38846C13.7936 3.62018 13.1734 3 12.4051 3C11.6368 3 11.0167 3.62018 11.0167 4.38846V5.0179C8.36471 5.64733 6.85128 8.0216 6.85128 10.8679V15.4962L5 17.3474V18.2731H19.8103V17.3474L17.959 15.4962Z" fill="#9B9FAB"/>
<circle cx="17" cy="7" r="3" fill="white"/>
<circle cx="17" cy="7" r="2" fill="#FF3D3D"/>
</svg>
